# xmcd
#
# Track frame offsets:
#	150
#	15332
#	29660
#	54170
#	77712
#	92905
#	109527
#	131180
#	149430
#	175507
#	192955
#	211507
#	233055
#	248852
#	269727
#	285355
#	301650
#
# Disc length: 4282 seconds
#
# Revision: 0
# Processed by: cddbd v1.5.2PL0 Copyright (c) Steve Scherf et al.
# Submitted via: EZCDAudioConverter 3.1.4.1
#
DISCID=de10b811
DTITLE=林子祥 - XRCD Special: 林子祥
DYEAR=2015
DGENRE=Pop
TTITLE0=誰能明白我
TTITLE1=石像
TTITLE2=千億個夜晚
TTITLE3=舊居中的鋼琴
TTITLE4=似夢迷離
TTITLE5=追憶
TTITLE6=每夜唱不停
TTITLE7=千枝針刺在心
TTITLE8=人海中一個你
TTITLE9=仍然記得嗰一次
TTITLE10=邁步向前
TTITLE11=海誓山盟
TTITLE12=莫再悲
TTITLE13=日落日出
TTITLE14=最愛是誰
TTITLE15=風雨故人來
TTITLE16=每一個晚上
EXTD=
EXTT0=
EXTT1=
EXTT2=
EXTT3=
EXTT4=
EXTT5=
EXTT6=
EXTT7=
EXTT8=
EXTT9=
EXTT10=
EXTT11=
EXTT12=
EXTT13=
EXTT14=
EXTT15=
EXTT16=
PLAYORDER=
